<svg width="23" height="20" viewBox="0 0 23 20" fill="none" xmlns="http://www.w3.org/2000/svg">
<path d="M0.367627 10.8547L8.67374 18.7999C8.91084 19.0267 9.22685 19.1512 9.56381 19.1512C9.90114 19.1512 10.217 19.0265 10.4541 18.7999L11.2082 18.0784C11.4451 17.8519 11.5756 17.5495 11.5756 17.227C11.5756 16.9047 11.4451 16.592 11.2082 16.3656L6.36254 11.7204L21.7574 11.7204C22.4516 11.7204 23 11.2007 23 10.5366L23 9.51651C23 8.85241 22.4516 8.28023 21.7575 8.28023L6.30756 8.28023L11.208 3.60911C11.4449 3.38232 11.5755 3.08809 11.5755 2.76561C11.5755 2.44348 11.4449 2.14496 11.208 1.91835L10.4539 1.19915C10.2168 0.972356 9.90095 0.848763 9.56363 0.848763C9.22667 0.848763 8.91066 0.973965 8.67355 1.20076L0.36744 9.14574C0.129775 9.37325 -0.000929958 9.67695 4.61474e-06 9.99979C-0.000743094 10.3237 0.129775 10.6276 0.367627 10.8547Z" fill="white"/>
</svg>
