<svg width="40" height="39" viewBox="0 0 40 39" fill="none" xmlns="http://www.w3.org/2000/svg">
<ellipse cx="19.8244" cy="19.5" rx="19.8243" ry="19.5" fill="#FFBA25"/>
<path d="M28.7745 17.3615L26.1375 19.9985L28.7745 22.6356L31.4116 19.9985L28.7745 17.3615Z" fill="white"/>
<path d="M11.2273 17.3629L8.59021 20L11.2273 22.6371L13.8643 20L11.2273 17.3629Z" fill="white"/>
<path d="M20.0002 26.1385L15.629 21.7672L12.9924 24.4038L20.0002 31.4116L27.0081 24.4038L24.3715 21.7672L20.0002 26.1385Z" fill="white"/>
<path d="M20.0002 13.8615L24.3715 18.2328L27.0081 15.5962L20.0002 8.58838L12.9924 15.5962L15.629 18.2328L20.0002 13.8615Z" fill="white"/>
<path d="M19.9987 17.396L17.3947 20L19.9987 22.604L22.6027 20L19.9987 17.396Z" fill="white"/>
</svg>
