<svg width="26" height="26" viewBox="0 0 26 26" fill="none" xmlns="http://www.w3.org/2000/svg">
<path d="M21.7745 10.3615L19.1375 12.9985L21.7745 15.6356L24.4116 12.9985L21.7745 10.3615Z" fill="#372F47"/>
<path d="M4.22728 10.3629L1.59021 13L4.22728 15.6371L6.86434 13L4.22728 10.3629Z" fill="#372F47"/>
<path d="M13.0002 19.1385L8.62899 14.7672L5.99243 17.4038L13.0002 24.4116L20.0081 17.4038L17.3715 14.7672L13.0002 19.1385Z" fill="#372F47"/>
<path d="M13.0002 6.8615L17.3715 11.2328L20.0081 8.59619L13.0002 1.58838L5.99243 8.59619L8.62899 11.2328L13.0002 6.8615Z" fill="#372F47"/>
<path d="M12.9987 10.396L10.3947 13L12.9987 15.604L15.6027 13L12.9987 10.396Z" fill="#372F47"/>
</svg>
