<svg width="36" height="36" viewBox="0 0 36 36" fill="none" xmlns="http://www.w3.org/2000/svg">
<path d="M18.0002 36C27.9414 36 36.0002 27.9411 36.0002 18C36.0002 8.05887 27.9414 0 18.0002 0C8.05912 0 0.000244141 8.05887 0.000244141 18C0.000244141 27.9411 8.05912 36 18.0002 36Z" fill="#FAB915"/>
<path fill-rule="evenodd" clip-rule="evenodd" d="M23.7655 17.2969C23.7655 17.2969 26.7186 18.766 26.7186 21.8999C26.7186 25.0339 24.488 27.2812 21.2342 27.2812H19.6874V28.2656C19.6898 28.3586 19.6732 28.4511 19.6388 28.5375C19.6043 28.6239 19.5526 28.7024 19.4868 28.7682C19.421 28.834 19.3425 28.8857 19.2561 28.9201C19.1697 28.9546 19.0772 28.9712 18.9842 28.9687H17.7186C17.6256 28.9712 17.5331 28.9546 17.4467 28.9201C17.3603 28.8857 17.2818 28.834 17.2161 28.7682C17.1503 28.7024 17.0986 28.6239 17.0641 28.5375C17.0296 28.4511 17.0131 28.3586 17.0155 28.2656V27.2812H15.6092V28.2656C15.6117 28.3586 15.5951 28.4511 15.5606 28.5375C15.5262 28.6239 15.4745 28.7024 15.4087 28.7682C15.3429 28.834 15.2644 28.8857 15.178 28.9201C15.0916 28.9546 14.9991 28.9712 14.9061 28.9687H13.6405C13.5475 28.9712 13.455 28.9546 13.3686 28.9201C13.2822 28.8857 13.2037 28.834 13.1379 28.7682C13.0721 28.7024 13.0204 28.6239 12.986 28.5375C12.9515 28.4511 12.9349 28.3586 12.9374 28.2656V27.2812H11.6717C11.5787 27.2837 11.4862 27.2671 11.3998 27.2326C11.3134 27.1982 11.235 27.1465 11.1692 27.0807C11.1034 27.0149 11.0517 26.9364 11.0172 26.85C10.9827 26.7636 10.9662 26.6711 10.9686 26.5781V25.7344C10.9662 25.6414 10.9827 25.5489 11.0172 25.4625C11.0517 25.3761 11.1034 25.2976 11.1692 25.2318C11.235 25.166 11.3134 25.1143 11.3998 25.0798C11.4862 25.0454 11.5787 25.0288 11.6717 25.0312H12.9374V11.1094H11.6717C11.5787 11.1118 11.4862 11.0952 11.3998 11.0608C11.3134 11.0263 11.235 10.9746 11.1692 10.9088C11.1034 10.843 11.0517 10.7645 11.0172 10.6781C10.9827 10.5917 10.9662 10.4992 10.9686 10.4062V9.70311C10.9662 9.61012 10.9827 9.5176 11.0172 9.43121C11.0517 9.34481 11.1034 9.26633 11.1692 9.20055C11.235 9.13477 11.3134 9.08306 11.3998 9.04858C11.4862 9.0141 11.5787 8.99757 11.6717 8.99999H12.9374V7.73436C12.9349 7.64137 12.9515 7.54885 12.986 7.46245C13.0204 7.37606 13.0721 7.29758 13.1379 7.2318C13.2037 7.16602 13.2822 7.11431 13.3686 7.07983C13.455 7.04535 13.5475 7.02882 13.6405 7.03124H14.9061C14.9991 7.02882 15.0916 7.04535 15.178 7.07983C15.2644 7.11431 15.3429 7.16602 15.4087 7.2318C15.4745 7.29758 15.5262 7.37606 15.5606 7.46245C15.5951 7.54885 15.6117 7.64137 15.6092 7.73436V8.99999H17.0155V7.73436C17.0131 7.64137 17.0296 7.54885 17.0641 7.46245C17.0986 7.37606 17.1503 7.29758 17.2161 7.2318C17.2818 7.16602 17.3603 7.11431 17.4467 7.07983C17.5331 7.04535 17.6256 7.02882 17.7186 7.03124H18.9842C19.0772 7.02882 19.1697 7.04535 19.2561 7.07983C19.3425 7.11431 19.421 7.16602 19.4868 7.2318C19.5526 7.29758 19.6043 7.37606 19.6388 7.46245C19.6732 7.54885 19.6898 7.64137 19.6874 7.73436V8.99999H20.953C20.953 8.99999 25.7342 9.21824 25.7342 13.6406C25.7342 16.8791 23.7655 17.2969 23.7655 17.2969ZM20.953 11.1094H15.6092V16.5937H20.953C20.953 16.5937 23.3436 16.287 23.3436 13.6406C23.3436 11.499 21.619 11.1351 20.953 11.1094ZM21.7967 18.7031H15.6092V25.0312H21.2342C21.2342 25.0312 24.0532 24.4419 24.0532 21.8999C24.0532 19.358 22.2685 18.701 21.7967 18.7031Z" fill="#372F47"/>
</svg>
