<svg width="75" height="75" viewBox="0 0 75 75" fill="none" xmlns="http://www.w3.org/2000/svg">
<path d="M37.0834 0C29.749 0 22.5793 2.1749 16.481 6.24967C10.3826 10.3244 5.62957 16.1161 2.82282 22.8922C0.0160676 29.6682 -0.718306 37.1245 0.712563 44.3179C2.14343 51.5114 5.67528 58.119 10.8615 63.3052C16.0477 68.4914 22.6553 72.0233 29.8488 73.4541C37.0422 74.885 44.4984 74.1506 51.2745 71.3439C58.0506 68.5371 63.8422 63.7841 67.917 57.6857C71.9918 51.5874 74.1667 44.4177 74.1667 37.0833C74.1667 32.2135 73.2075 27.3913 71.3439 22.8922C69.4803 18.393 66.7487 14.305 63.3052 10.8615C59.8617 7.41795 55.7737 4.68641 51.2745 2.8228C46.7754 0.959189 41.9532 0 37.0834 0V0ZM54.5496 28.5912L36.0079 47.1329C35.6632 47.4805 35.2531 47.7564 34.8012 47.9446C34.3493 48.1329 33.8646 48.2298 33.375 48.2298C32.8855 48.2298 32.4008 48.1329 31.9489 47.9446C31.497 47.7564 31.0868 47.4805 30.7421 47.1329L23.3254 39.7162C22.6271 39.018 22.2348 38.0709 22.2348 37.0833C22.2348 36.0958 22.6271 35.1487 23.3254 34.4504C24.0237 33.7521 24.9708 33.3598 25.9583 33.3598C26.9459 33.3598 27.893 33.7521 28.5913 34.4504L33.375 39.2712L49.2838 23.3254C49.9821 22.6271 50.9291 22.2348 51.9167 22.2348C52.9042 22.2348 53.8513 22.6271 54.5496 23.3254C55.2479 24.0237 55.6402 24.9708 55.6402 25.9583C55.6402 26.9459 55.2479 27.893 54.5496 28.5912V28.5912Z" fill="#F0B90B"/>
</svg>
