<svg width="20" height="20" viewBox="0 0 20 20" fill="none" xmlns="http://www.w3.org/2000/svg">
<path d="M13.1466 13.7179L9.40967 9.98102V3.69043H10.7467V9.42617L14.0892 12.7754L13.1466 13.7179Z" fill="white"/>
<path d="M10.0783 0.3479C8.83147 0.348077 7.59739 0.59844 6.44911 1.08416C5.30083 1.56988 4.2617 2.28109 3.39324 3.17566V0.3479H2.05624V5.69591H7.40425V4.35891H4.11522C5.36935 2.96528 7.07199 2.05494 8.92744 1.78598C10.7829 1.51703 12.6739 1.90645 14.2722 2.88663C15.8704 3.8668 17.0748 5.37579 17.6762 7.15154C18.2777 8.92729 18.2382 10.8576 17.5646 12.6073C16.891 14.3569 15.6258 15.8154 13.9888 16.7293C12.3518 17.6433 10.4464 17.955 8.60353 17.6103C6.76064 17.2657 5.09668 16.2864 3.90063 14.8426C2.70458 13.3989 2.05201 11.5818 2.05624 9.70691H0.719238C0.719238 11.558 1.26813 13.3674 2.29652 14.9065C3.3249 16.4456 4.78658 17.6452 6.49671 18.3535C8.20685 19.0619 10.0886 19.2472 11.9041 18.8861C13.7196 18.525 15.3872 17.6336 16.6961 16.3247C18.005 15.0159 18.8963 13.3482 19.2574 11.5328C19.6186 9.7173 19.4332 7.83551 18.7249 6.12537C18.0165 4.41524 16.8169 2.95356 15.2778 1.92518C13.7388 0.896797 11.9293 0.3479 10.0783 0.3479Z" fill="white"/>
</svg>
