<svg width="20" height="20" viewBox="0 0 20 20" fill="none" xmlns="http://www.w3.org/2000/svg">
<path d="M10.0001 0.19165C4.59174 0.19165 0.191406 4.59168 0.191406 10C0.191406 15.4083 4.59174 19.8083 10.0001 19.8083C15.4084 19.8083 19.8087 15.4083 19.8087 10C19.8087 4.59168 15.4084 0.19165 10.0001 0.19165ZM14.455 5.84534L11.2519 11.1768C11.2336 11.2073 11.208 11.2329 11.1771 11.2512L5.8454 14.4543C5.81061 14.4757 5.77155 14.4855 5.73279 14.4855C5.67633 14.4855 5.62018 14.4641 5.57806 14.4214C5.50696 14.3506 5.49353 14.2401 5.54541 14.1541L8.75036 8.82446C8.76868 8.79394 8.79431 8.76831 8.82514 8.75L14.155 5.54504C14.2405 5.49256 14.351 5.50598 14.4224 5.578C14.4935 5.64881 14.5069 5.75927 14.455 5.84534ZM9.77728 2.0636C9.78308 2.18445 9.69031 2.28699 9.56946 2.29309C9.24932 2.30896 8.91912 2.34619 8.58862 2.40479C8.57549 2.40723 8.56298 2.40784 8.55017 2.40784C8.44611 2.40784 8.35364 2.33338 8.33502 2.22718C8.31396 2.10816 8.39361 1.99463 8.51232 1.97388C8.86114 1.91224 9.20965 1.87256 9.54809 1.85608C9.66925 1.85608 9.77118 1.94336 9.77728 2.0636ZM4.39215 4.01673C5.1203 3.38989 6.27936 2.55982 7.66638 2.16858C7.78479 2.13746 7.90411 2.20398 7.93646 2.31995C7.96912 2.43592 7.90167 2.55677 7.7854 2.58973C6.47528 2.95899 5.37237 3.75 4.6778 4.34876C4.63629 4.38416 4.58564 4.40124 4.53498 4.40124C4.47364 4.40124 4.4126 4.37561 4.36926 4.32556C4.29053 4.23401 4.3006 4.09607 4.39215 4.01673Z" fill="white"/>
</svg>
