<svg width="49" height="49" viewBox="0 0 49 49" fill="none" xmlns="http://www.w3.org/2000/svg">
<circle cx="24.2261" cy="24.2261" r="24.2261" fill="white"/>
<path d="M30.9255 27.0779C30.5282 26.8154 29.8856 26.8164 29.4901 27.0802L25.9466 29.4441V15.1738C25.9466 14.8017 25.4922 14.5 24.9316 14.5C24.371 14.5 23.9166 14.8017 23.9166 15.1738V29.4441L20.373 27.0802C19.9776 26.8164 19.3349 26.8154 18.9376 27.0779C18.5403 27.3405 18.5388 27.7671 18.9342 28.0309L24.2122 31.5518C24.2125 31.552 24.2128 31.5522 24.2131 31.5524C24.6086 31.8155 25.2533 31.8163 25.65 31.5524C25.6503 31.5522 25.6507 31.552 25.651 31.5518L30.929 28.0309C31.3243 27.7672 31.323 27.3405 30.9255 27.0779Z" fill="black"/>
</svg>
