<svg width="47" height="40" viewBox="0 0 47 40" fill="none" xmlns="http://www.w3.org/2000/svg">
<path d="M0 6.67129C0 2.98684 2.98684 0 6.67129 0H47V40H6.67129C2.98684 40 0 37.0132 0 33.3287V6.67129Z" fill="#F0B90B"/>
<path d="M31.5769 10H15.4231C14.7804 10 14.1641 10.2529 13.7097 10.7029C13.2553 11.153 13 11.7635 13 12.4V27.6C13 28.2365 13.2553 28.847 13.7097 29.2971C14.1641 29.7471 14.7804 30 15.4231 30H31.5769C32.2196 30 32.8359 29.7471 33.2903 29.2971C33.7447 28.847 34 28.2365 34 27.6V12.4C34 11.7635 33.7447 11.153 33.2903 10.7029C32.8359 10.2529 32.2196 10 31.5769 10ZM32.3846 27.6C32.3846 27.8122 32.2995 28.0157 32.148 28.1657C31.9966 28.3157 31.7911 28.4 31.5769 28.4H15.4231C15.2089 28.4 15.0034 28.3157 14.852 28.1657C14.7005 28.0157 14.6154 27.8122 14.6154 27.6V12.4C14.6154 12.1878 14.7005 11.9843 14.852 11.8343C15.0034 11.6843 15.2089 11.6 15.4231 11.6H31.5769C31.7911 11.6 31.9966 11.6843 32.148 11.8343C32.2995 11.9843 32.3846 12.1878 32.3846 12.4V27.6Z" fill="black"/>
<path d="M29.1613 19C29.3837 19 29.5971 18.9148 29.7544 18.7631C29.9116 18.6114 30 18.4057 30 18.1912C30 17.9767 29.9116 17.7709 29.7544 17.6193C29.5971 17.4676 29.3837 17.3824 29.1613 17.3824H19.8644L20.9463 16.3349C21.0837 16.1802 21.1555 15.9812 21.1473 15.7776C21.1392 15.574 21.0517 15.3809 20.9023 15.2369C20.7529 15.0929 20.5527 15.0085 20.3416 15.0006C20.1305 14.9927 19.9242 15.062 19.7637 15.1945L17.2476 17.621C17.1298 17.7338 17.0494 17.8778 17.0166 18.0348C16.9837 18.1917 16.9999 18.3545 17.0631 18.5026C17.1269 18.6502 17.2347 18.7762 17.3728 18.8647C17.5109 18.9533 17.6731 19.0003 17.8389 19H29.1613Z" fill="black"/>
<path d="M29.2256 22H18.7742C18.5689 22 18.3719 22.0834 18.2268 22.2318C18.0816 22.3802 18 22.5815 18 22.7914C18 23.0013 18.0816 23.2025 18.2268 23.351C18.3719 23.4994 18.5689 23.5827 18.7742 23.5827H27.356L26.3573 24.6076C26.2762 24.6785 26.2104 24.7658 26.164 24.864C26.1175 24.9622 26.0914 25.0691 26.0873 25.1781C26.0831 25.2871 26.1011 25.3958 26.14 25.4973C26.1789 25.5989 26.238 25.6911 26.3134 25.7682C26.3889 25.8453 26.4791 25.9057 26.5785 25.9455C26.6778 25.9853 26.7841 26.0036 26.8907 25.9994C26.9974 25.9952 27.102 25.9685 27.198 25.921C27.2941 25.8735 27.3795 25.8062 27.4489 25.7234L29.7714 23.3493C29.8802 23.2389 29.9544 23.098 29.9847 22.9444C30.015 22.7909 30.0001 22.6316 29.9417 22.4867C29.8828 22.3423 29.7833 22.219 29.6559 22.1324C29.5284 22.0457 29.3787 21.9997 29.2256 22Z" fill="black"/>
</svg>
