<svg width="47" height="40" viewBox="0 0 47 40" fill="none" xmlns="http://www.w3.org/2000/svg">
<path d="M0 6.67129C0 2.98684 2.98684 0 6.67129 0H47V40H6.67129C2.98684 40 0 37.0132 0 33.3287V6.67129Z" fill="#F0B90B"/>
<path d="M24.3616 16.7346H22.4321C22.2811 16.7346 22.1363 16.7945 22.0296 16.9013C21.9228 17.0081 21.8629 17.1528 21.8629 17.3038C21.8629 17.4548 21.9228 17.5996 22.0296 17.7063C22.1363 17.8131 22.2811 17.8731 22.4321 17.8731H23.3226V18.4971C23.3226 18.6481 23.3826 18.7928 23.4893 18.8996C23.5961 19.0064 23.7409 19.0663 23.8918 19.0663C24.0428 19.0663 24.1876 19.0064 24.2944 18.8996C24.4011 18.7928 24.4611 18.6481 24.4611 18.4971V17.863C24.8654 17.8388 25.2442 17.6578 25.5172 17.3586C25.7901 17.0593 25.9355 16.6655 25.9226 16.2607C25.9096 15.8559 25.7392 15.4721 25.4477 15.1909C25.1562 14.9098 24.7666 14.7534 24.3616 14.7551H23.496C23.3655 14.754 23.2407 14.7014 23.1489 14.6087C23.057 14.516 23.0054 14.3908 23.0054 14.2603C23.0054 14.1298 23.057 14.0046 23.1489 13.9119C23.2407 13.8193 23.3655 13.7667 23.496 13.7656H25.4415C25.5925 13.7656 25.7373 13.7056 25.844 13.5988C25.9508 13.4921 26.0108 13.3473 26.0108 13.1963C26.0108 13.0453 25.9508 12.9006 25.844 12.7938C25.7373 12.687 25.5925 12.6271 25.4415 12.6271H24.4611V12.0032C24.4611 11.8522 24.4011 11.7074 24.2944 11.6007C24.1876 11.4939 24.0428 11.434 23.8918 11.434C23.7409 11.434 23.5961 11.4939 23.4893 11.6007C23.3826 11.7074 23.3226 11.8522 23.3226 12.0032V12.6446C22.9073 12.6881 22.5246 12.8895 22.2535 13.2072C21.9824 13.5248 21.8437 13.9344 21.866 14.3514C21.8882 14.7684 22.0698 15.1609 22.3731 15.4479C22.6765 15.7349 23.0784 15.8944 23.496 15.8935H24.3616C24.4731 15.8935 24.5801 15.9378 24.6589 16.0167C24.7378 16.0956 24.7821 16.2025 24.7821 16.314C24.7821 16.4256 24.7378 16.5325 24.6589 16.6114C24.5801 16.6903 24.4731 16.7346 24.3616 16.7346Z" fill="black"/>
<path d="M31.4034 14.2036C31.2992 14.0944 31.1559 14.0311 31.005 14.0275C30.854 14.0238 30.7079 14.0802 30.5985 14.1843L30.0231 14.7327C29.9272 13.4515 29.4353 12.2317 28.6155 11.2424C27.7957 10.2531 26.6886 9.54314 25.4475 9.21082C24.2064 8.8785 22.8927 8.94027 21.6883 9.38758C20.4838 9.83488 19.4483 10.6456 18.725 11.7075C18.6405 11.8321 18.6088 11.9852 18.6369 12.1332C18.6651 12.2811 18.7507 12.4119 18.8751 12.4968C18.9994 12.5818 19.1524 12.614 19.3005 12.5864C19.4485 12.5588 19.5796 12.4736 19.665 12.3496C20.2526 11.4869 21.0926 10.8271 22.0698 10.4607C23.0471 10.0942 24.1138 10.0389 25.1237 10.3025C26.1336 10.5661 27.0373 11.1356 27.7108 11.9329C28.3843 12.7303 28.7947 13.7164 28.8857 14.7562L28.3393 14.2728C28.2833 14.2232 28.218 14.1852 28.1473 14.1608C28.0766 14.1365 28.0018 14.1263 27.9272 14.1308C27.8526 14.1354 27.7796 14.1546 27.7123 14.1874C27.6451 14.2202 27.585 14.2659 27.5355 14.3219C27.4354 14.435 27.3844 14.5832 27.3936 14.7339C27.3981 14.8085 27.4173 14.8816 27.4501 14.9488C27.4829 15.016 27.5286 15.0761 27.5846 15.1256L29.0997 16.4661C29.2066 16.5606 29.345 16.6115 29.4876 16.6088C29.6301 16.6062 29.7665 16.5501 29.8698 16.4518L31.3839 15.0085C31.4932 14.9043 31.5567 14.761 31.5604 14.6101C31.564 14.4592 31.5076 14.3129 31.4034 14.2036Z" fill="black"/>
<path d="M29.119 17.8376C28.9905 17.7583 28.8358 17.7333 28.6889 17.768C28.542 17.8028 28.4149 17.8945 28.3356 18.023C27.7779 18.9286 26.9489 19.6354 25.9666 20.043C24.9842 20.4506 23.8984 20.5382 22.8633 20.2934C21.8283 20.0486 20.8968 19.4838 20.2011 18.6794C19.5054 17.8749 19.081 16.8716 18.9881 15.8121L19.5346 16.2955C19.5906 16.3451 19.6558 16.3831 19.7265 16.4074C19.7972 16.4318 19.872 16.442 19.9466 16.4374C20.0213 16.4329 20.0943 16.4136 20.1615 16.3809C20.2287 16.3481 20.2888 16.3024 20.3383 16.2464C20.3879 16.1904 20.4259 16.1252 20.4503 16.0545C20.4746 15.9838 20.4848 15.909 20.4803 15.8344C20.4757 15.7597 20.4565 15.6867 20.4237 15.6195C20.3909 15.5523 20.3452 15.4922 20.2892 15.4426L18.7738 14.102C18.6624 14.0036 18.5169 13.9526 18.3685 13.9599C18.22 13.9672 18.0803 14.0323 17.9791 14.1411L16.6398 15.5844C16.5377 15.6952 16.4837 15.8419 16.4896 15.9925C16.4955 16.143 16.5609 16.285 16.6713 16.3875C16.7817 16.49 16.9282 16.5445 17.0788 16.5391C17.2293 16.5338 17.3716 16.469 17.4745 16.3589L17.8563 15.9471C17.9774 17.2413 18.5023 18.4646 19.3568 19.4442C20.2112 20.4237 21.352 21.1097 22.6178 21.4054C23.8835 21.701 25.2102 21.5912 26.4101 21.0915C27.6101 20.5918 28.6226 19.7275 29.3044 18.6209C29.3436 18.5573 29.37 18.4866 29.3819 18.4128C29.3939 18.339 29.3911 18.2636 29.3739 18.1908C29.3567 18.1181 29.3253 18.0494 29.2816 17.9888C29.2379 17.9282 29.1826 17.8768 29.119 17.8376Z" fill="black"/>
<path d="M18.3732 22.8167H16.3258C16.2394 22.8167 16.1565 22.851 16.0954 22.9121C16.0343 22.9732 16 23.056 16 23.1424V30.1297C16 30.2161 16.0343 30.2989 16.0954 30.36C16.1565 30.4211 16.2394 30.4555 16.3258 30.4555H18.3732C18.4664 30.4555 18.5587 30.4371 18.6449 30.4014C18.731 30.3657 18.8093 30.3134 18.8752 30.2475C18.9412 30.1816 18.9934 30.1033 19.0291 30.0171C19.0648 29.931 19.0832 29.8387 19.0832 29.7454V23.5267C19.0832 23.3384 19.0084 23.1578 18.8752 23.0246C18.7421 22.8915 18.5615 22.8167 18.3732 22.8167Z" fill="black"/>
<path d="M31.3128 23.6163C31.2011 23.4461 31.0488 23.3064 30.8696 23.2099C30.6904 23.1133 30.4899 23.0629 30.2864 23.0632H29.4842C29.1324 23.0626 28.7883 23.1667 28.4959 23.3623C28.2035 23.558 27.976 23.8363 27.8425 24.1617C27.7361 24.4176 27.5705 24.6447 27.3594 24.8242C27.1253 25.1288 26.8265 25.3776 26.4846 25.5528C26.1427 25.7281 25.7663 25.8253 25.3823 25.8376L23.0044 25.8378C22.8789 25.8378 22.7586 25.788 22.67 25.6993C22.5813 25.6106 22.5314 25.4903 22.5314 25.3649C22.5314 25.2394 22.5813 25.1192 22.67 25.0305C22.7586 24.9418 22.8789 24.8919 23.0044 24.8919H25.3696C25.7212 24.882 26.0592 24.7542 26.3294 24.529C26.2836 24.1246 26.0901 23.7514 25.786 23.4809C25.4819 23.2104 25.0886 23.0617 24.6817 23.0633H22.9379C22.6142 23.0625 22.2936 23.1256 21.9945 23.2492C21.6954 23.3727 21.4237 23.5542 21.1949 23.7832L21.1505 23.8275C20.8437 24.1344 20.4539 24.3449 20.0291 24.4332V29.1764H26.3241C27.2745 29.1769 28.2042 28.8986 28.9979 28.3757C29.7916 27.8529 30.4145 27.1086 30.7891 26.2352L31.4155 24.7773C31.4962 24.5905 31.529 24.3865 31.5111 24.1838C31.4931 23.9811 31.425 23.786 31.3128 23.6163Z" fill="black"/>
</svg>
