<svg width="19" height="23" viewBox="0 0 19 23" fill="none" xmlns="http://www.w3.org/2000/svg">
<path d="M9.5 0C5.53106 0 2.3125 3.21856 2.3125 7.1875V8.625H0.875V23H18.125V8.625H16.6875V7.1875C16.6875 3.21856 13.4689 0 9.5 0ZM10.9375 16.8518V20.125H8.0625V16.8518C7.20719 16.353 6.625 15.4359 6.625 14.375C6.625 12.7866 7.91156 11.5 9.5 11.5C11.0884 11.5 12.375 12.7866 12.375 14.375C12.375 15.4359 11.7928 16.353 10.9375 16.8518ZM15.25 8.625H3.75V7.1875C3.75 4.01638 6.32888 1.4375 9.5 1.4375C12.6711 1.4375 15.25 4.01638 15.25 7.1875V8.625Z" fill="white"/>
</svg>
