<svg width="169" height="169" viewBox="0 0 169 169" fill="none" xmlns="http://www.w3.org/2000/svg">
<path d="M84.5 0C37.8314 0 0 37.8314 0 84.5C0 131.169 37.8314 169 84.5 169C131.169 169 169 131.169 169 84.5C169 37.8314 131.169 0 84.5 0ZM14.0833 84.5C14.0833 45.6089 45.6089 14.0833 84.5 14.0833C101.576 14.0833 117.219 20.1638 129.408 30.2686L30.2686 129.408C20.1638 117.219 14.0833 101.576 14.0833 84.5ZM84.5 154.917C67.7549 154.917 52.3935 149.047 40.3065 139.288L139.284 40.3135C149.047 52.3935 154.917 67.7549 154.917 84.5C154.917 123.391 123.391 154.917 84.5 154.917Z" fill="white"/>
</svg>
