<svg width="386" height="386" viewBox="0 0 386 386" fill="none" xmlns="http://www.w3.org/2000/svg">
<circle cx="193" cy="193" r="192.75" fill="black" stroke="white" stroke-width="0.5"/>
<circle cx="192.5" cy="192.5" r="160.05" fill="black" stroke="white" stroke-width="0.9"/>
<circle cx="192.5" cy="192.5" r="131" fill="black" stroke="white"/>
<circle cx="192.5" cy="192.5" r="109.75" fill="black" stroke="white" stroke-width="1.5"/>
<path d="M234.822 135H150.761C146.581 135 142.572 136.661 139.616 139.616C136.661 142.572 135 146.581 135 150.761V234.822C135 239.002 136.661 243.011 139.616 245.967C142.572 248.923 146.581 250.583 150.761 250.583H234.822C239.002 250.583 243.011 248.923 245.967 245.967C248.923 243.011 250.583 239.002 250.583 234.822V150.761C250.583 146.581 248.923 142.572 245.967 139.616C243.011 136.661 239.002 135 234.822 135ZM171.777 234.822C170.383 234.822 169.047 234.268 168.062 233.283C167.076 232.298 166.523 230.962 166.523 229.568C166.523 226.781 165.416 224.109 163.445 222.138C161.475 220.168 158.802 219.061 156.015 219.061C154.622 219.061 153.285 218.507 152.3 217.522C151.315 216.537 150.761 215.2 150.761 213.807C150.761 212.413 151.315 211.077 152.3 210.092C153.285 209.107 154.622 208.553 156.015 208.553C161.589 208.553 166.934 210.767 170.875 214.708C174.816 218.649 177.03 223.995 177.03 229.568C177.03 230.962 176.477 232.298 175.492 233.283C174.506 234.268 173.17 234.822 171.777 234.822ZM192.792 234.822C191.398 234.822 190.062 234.268 189.077 233.283C188.091 232.298 187.538 230.962 187.538 229.568C187.53 221.21 184.206 213.197 178.296 207.287C172.386 201.378 164.373 198.054 156.015 198.045C154.622 198.045 153.285 197.492 152.3 196.507C151.315 195.521 150.761 194.185 150.761 192.792C150.761 191.398 151.315 190.062 152.3 189.077C153.285 188.091 154.622 187.538 156.015 187.538C167.158 187.55 177.842 191.983 185.721 199.862C193.601 207.742 198.033 218.425 198.045 229.568C198.045 230.962 197.492 232.298 196.507 233.283C195.521 234.268 194.185 234.822 192.792 234.822ZM213.807 234.822C212.413 234.822 211.077 234.268 210.092 233.283C209.107 232.298 208.553 230.962 208.553 229.568C208.538 215.639 202.998 202.285 193.148 192.435C183.299 182.586 169.944 177.046 156.015 177.03C154.622 177.03 153.285 176.477 152.3 175.492C151.315 174.506 150.761 173.17 150.761 171.777C150.761 170.383 151.315 169.047 152.3 168.062C153.285 167.076 154.622 166.523 156.015 166.523C172.73 166.541 188.756 173.189 200.575 185.008C212.394 196.828 219.043 212.853 219.061 229.568C219.061 230.962 218.507 232.298 217.522 233.283C216.537 234.268 215.2 234.822 213.807 234.822Z" fill="white" fill-opacity="0.95"/>
</svg>
