<svg width="23" height="13" viewBox="0 0 23 13" fill="none" xmlns="http://www.w3.org/2000/svg">
<path d="M12.1772 4.41667C11.3178 1.98958 9.0105 0.25 6.29175 0.25C2.83862 0.25 0.041748 3.04687 0.041748 6.5C0.041748 9.95312 2.83862 12.75 6.29175 12.75C9.0105 12.75 11.3178 11.0104 12.1772 8.58333H16.7084V12.75H20.8751V8.58333H22.9584V4.41667H12.1772ZM6.29175 8.58333C5.14071 8.58333 4.20841 7.65104 4.20841 6.5C4.20841 5.34896 5.14071 4.41667 6.29175 4.41667C7.44279 4.41667 8.37508 5.34896 8.37508 6.5C8.37508 7.65104 7.44279 8.58333 6.29175 8.58333Z" fill="white"/>
</svg>
