<svg width="20" height="20" viewBox="0 0 20 20" fill="none" xmlns="http://www.w3.org/2000/svg">
<path d="M2.65625 7.5H3.75C3.83594 7.5 3.90625 7.42969 3.90625 7.34375V3.90625H7.34375C7.42969 3.90625 7.5 3.83594 7.5 3.75V2.65625C7.5 2.57031 7.42969 2.5 7.34375 2.5H3.82812C3.09375 2.5 2.5 3.09375 2.5 3.82812V7.34375C2.5 7.42969 2.57031 7.5 2.65625 7.5ZM12.6562 3.90625H16.0938V7.34375C16.0938 7.42969 16.1641 7.5 16.25 7.5H17.3438C17.4297 7.5 17.5 7.42969 17.5 7.34375V3.82812C17.5 3.09375 16.9062 2.5 16.1719 2.5H12.6562C12.5703 2.5 12.5 2.57031 12.5 2.65625V3.75C12.5 3.83594 12.5703 3.90625 12.6562 3.90625ZM7.34375 16.0938H3.90625V12.6562C3.90625 12.5703 3.83594 12.5 3.75 12.5H2.65625C2.57031 12.5 2.5 12.5703 2.5 12.6562V16.1719C2.5 16.9062 3.09375 17.5 3.82812 17.5H7.34375C7.42969 17.5 7.5 17.4297 7.5 17.3438V16.25C7.5 16.1641 7.42969 16.0938 7.34375 16.0938ZM17.3438 12.5H16.25C16.1641 12.5 16.0938 12.5703 16.0938 12.6562V16.0938H12.6562C12.5703 16.0938 12.5 16.1641 12.5 16.25V17.3438C12.5 17.4297 12.5703 17.5 12.6562 17.5H16.1719C16.9062 17.5 17.5 16.9062 17.5 16.1719V12.6562C17.5 12.5703 17.4297 12.5 17.3438 12.5ZM17.6562 9.29688H2.34375C2.25781 9.29688 2.1875 9.36719 2.1875 9.45312V10.5469C2.1875 10.6328 2.25781 10.7031 2.34375 10.7031H17.6562C17.7422 10.7031 17.8125 10.6328 17.8125 10.5469V9.45312C17.8125 9.36719 17.7422 9.29688 17.6562 9.29688Z" fill="#F0B90B"/>
</svg>
