<svg width="22" height="24" viewBox="0 0 22 24" fill="none" xmlns="http://www.w3.org/2000/svg">
<path d="M20.6709 4.65819L11.6709 0.158193C11.4626 0.0541574 11.2329 0 11 0C10.7671 0 10.5374 0.0541574 10.3291 0.158193L1.3291 4.65819C1.07998 4.78285 0.870469 4.97439 0.724038 5.21138C0.577606 5.44836 0.500032 5.72142 0.5 5.99999V13.5C0.5 20.6235 8.92138 24 11 24C13.0786 24 21.5 20.6235 21.5 13.5V5.99999C21.5 5.72142 21.4224 5.44836 21.276 5.21138C21.1295 4.97439 20.92 4.78285 20.6709 4.65819ZM18.5 13.5C18.5 18.4394 11.9404 20.9414 11 21C10.0596 20.9414 3.5 18.4394 3.5 13.5V6.92724L11 3.17724L18.5 6.92724V13.5Z" fill="white"/>
</svg>
