<svg width="22" height="22" viewBox="0 0 22 22" fill="none" xmlns="http://www.w3.org/2000/svg">
<path d="M12.305 21.4073H9.09183C8.89461 21.4073 8.70436 21.3344 8.55774 21.2025C8.41111 21.0706 8.31849 20.8891 8.29772 20.693L8.0598 18.4528C7.72768 18.3398 7.40322 18.2053 7.08845 18.0504L5.3379 19.4662C5.18468 19.5896 4.9913 19.6521 4.79485 19.6417C4.5984 19.6312 4.41271 19.5487 4.2734 19.4098L2.00125 17.1376C1.86234 16.9983 1.77976 16.8126 1.76935 16.6161C1.75894 16.4197 1.82143 16.2263 1.94483 16.0731L3.36113 14.3204C3.20593 14.0057 3.07134 13.6812 2.95822 13.3491L0.714274 13.1096C0.51825 13.0888 0.336838 12.9963 0.204966 12.8497C0.0730938 12.7032 8.61379e-05 12.5131 0 12.316V9.10228C8.61379e-05 8.90516 0.0730938 8.71504 0.204966 8.56853C0.336838 8.42202 0.51825 8.32947 0.714274 8.3087L2.9545 8.07079C3.06761 7.73862 3.2022 7.41415 3.35741 7.09944L1.9411 5.34675C1.8177 5.19354 1.75522 5.00016 1.76563 4.80371C1.77604 4.60726 1.85862 4.42157 1.99752 4.28226L4.26968 2.0101C4.40899 1.8712 4.59468 1.78862 4.79113 1.77821C4.98758 1.7678 5.18096 1.83029 5.33417 1.95369L7.08686 3.36946C7.40162 3.21452 7.72608 3.08011 8.0582 2.96708L8.29612 0.726859C8.31655 0.530182 8.40924 0.348085 8.55624 0.215834C8.70324 0.0835826 8.89409 0.0105886 9.09183 0.010988H12.305C12.5022 0.0109427 12.6925 0.0838912 12.8391 0.215776C12.9857 0.34766 13.0783 0.529147 13.0991 0.725262L13.3365 2.96549C13.6688 3.07851 13.9934 3.21292 14.3084 3.36786L16.0605 1.95209C16.2137 1.82869 16.4071 1.7662 16.6036 1.77662C16.8 1.78703 16.9857 1.8696 17.125 2.00851L19.3972 4.28067C19.5361 4.41998 19.6187 4.60567 19.6291 4.80212C19.6395 4.99857 19.577 5.19195 19.4536 5.34516L18.0373 7.09784C18.1923 7.41266 18.3269 7.73711 18.4402 8.06919L20.6804 8.30711C20.8763 8.32799 21.0576 8.42059 21.1894 8.5671C21.3212 8.7136 21.3941 8.90365 21.3942 9.10069V12.3144C21.3945 12.5114 21.3221 12.7015 21.1907 12.8483C21.0594 12.9951 20.8784 13.0882 20.6825 13.1096L18.4423 13.3475C18.329 13.6796 18.1944 14.004 18.0394 14.3188L19.4557 16.0715C19.5791 16.2247 19.6416 16.4181 19.6312 16.6146C19.6208 16.811 19.5382 16.9967 19.3993 17.136L17.1271 19.4098C16.9878 19.5487 16.8021 19.6312 16.6057 19.6417C16.4092 19.6521 16.2159 19.5896 16.0627 19.4662L14.3105 18.0504C13.9956 18.2053 13.6709 18.3398 13.3386 18.4528L13.1012 20.693C13.0804 20.8895 12.9875 21.0713 12.8404 21.2032C12.6933 21.3351 12.5026 21.4079 12.305 21.4073ZM9.80876 19.8105H11.5859L11.8036 17.7582C11.8207 17.5976 11.8861 17.4459 11.9912 17.3232C12.0963 17.2005 12.2362 17.1126 12.3923 17.0711C12.9546 16.9211 13.4945 16.6968 13.9975 16.4042C14.1376 16.3226 14.2992 16.2855 14.4608 16.298C14.6224 16.3104 14.7765 16.3718 14.9024 16.4739L16.5076 17.771L17.7642 16.5143L16.465 14.9139C16.3629 14.788 16.3016 14.634 16.2891 14.4723C16.2767 14.3107 16.3137 14.1491 16.3953 14.0091C16.6874 13.5063 16.9109 12.9668 17.0601 12.4049C17.1016 12.2487 17.1896 12.1088 17.3124 12.0037C17.4352 11.8985 17.587 11.8332 17.7477 11.8162L19.7996 11.598V9.82082L17.7477 9.60259C17.587 9.58562 17.4352 9.52025 17.3124 9.41514C17.1896 9.31003 17.1016 9.17013 17.0601 9.01393C16.911 8.45179 16.6874 7.91211 16.3953 7.40921C16.3137 7.26914 16.2767 7.10756 16.2891 6.94593C16.3016 6.7843 16.3629 6.6303 16.465 6.50439L17.7621 4.89914L16.5055 3.6425L14.9002 4.93959C14.7743 5.04169 14.6203 5.10306 14.4587 5.11551C14.2971 5.12796 14.1355 5.09092 13.9954 5.00931C13.4926 4.71747 12.9531 4.49391 12.3912 4.34454C12.2351 4.30301 12.0953 4.2151 11.9902 4.09241C11.885 3.96973 11.8196 3.81805 11.8026 3.65741L11.587 1.60773H9.80876L9.59107 3.66007C9.57396 3.82078 9.50847 3.97251 9.40326 4.0952C9.29806 4.21789 9.15809 4.30576 9.00188 4.3472C8.4404 4.49725 7.90145 4.72153 7.39928 5.0141C7.25922 5.09571 7.09763 5.13275 6.936 5.1203C6.77438 5.10785 6.62037 5.04648 6.49447 4.94438L4.89081 3.64516L3.63471 4.9018L4.93232 6.50705C5.03435 6.63301 5.09561 6.78705 5.10797 6.94867C5.12033 7.1103 5.0832 7.27186 5.00152 7.41187C4.70991 7.91482 4.48636 8.45427 4.33674 9.01606C4.29521 9.17218 4.2073 9.31203 4.08462 9.41713C3.96193 9.52223 3.81025 9.58764 3.64961 9.60472L1.59727 9.82294V11.5996L3.64961 11.8178C3.81025 11.8349 3.96193 11.9003 4.08462 12.0054C4.2073 12.1105 4.29521 12.2503 4.33674 12.4065C4.48633 12.9677 4.70969 13.5066 5.00098 14.0091C5.08267 14.1491 5.1198 14.3106 5.10744 14.4723C5.09508 14.6339 5.03382 14.7879 4.93179 14.9139L3.63471 16.5165L4.89134 17.7731L6.49713 16.476C6.62303 16.3739 6.77704 16.3126 6.93867 16.3001C7.10029 16.2876 7.26188 16.3247 7.40195 16.4063C7.90456 16.6982 8.44387 16.9218 9.0056 17.0711C9.16182 17.1125 9.30178 17.2004 9.40699 17.3231C9.51219 17.4458 9.57768 17.5975 9.5948 17.7582L9.80876 19.8105Z" fill="white"/>
<path d="M10.698 15.5716C9.7363 15.5715 8.79622 15.2863 7.99664 14.7519C7.19706 14.2175 6.57389 13.458 6.20593 12.5695C5.83797 11.681 5.74175 10.7033 5.92944 9.76007C6.11712 8.81685 6.58028 7.95047 7.26035 7.27047C7.94042 6.59048 8.80685 6.12741 9.75009 5.93983C10.6933 5.75225 11.671 5.84858 12.5595 6.21663C13.448 6.58469 14.2074 7.20794 14.7417 8.00758C15.276 8.80722 15.5611 9.74733 15.5611 10.709C15.5597 11.9983 15.0469 13.2344 14.1352 14.146C13.2234 15.0577 11.9873 15.5704 10.698 15.5716ZM10.698 7.44318C10.0521 7.44328 9.42074 7.63491 8.88374 7.99383C8.34674 8.35275 7.92823 8.86285 7.68112 9.45961C7.43402 10.0564 7.36942 10.713 7.4955 11.3465C7.62157 11.98 7.93266 12.5619 8.38942 13.0185C8.84618 13.4752 9.4281 13.7862 10.0616 13.9122C10.6951 14.0382 11.3517 13.9734 11.9485 13.7262C12.5452 13.479 13.0552 13.0605 13.414 12.5234C13.7729 11.9863 13.9644 11.3549 13.9644 10.709C13.9634 9.84309 13.6189 9.0129 13.0066 8.40063C12.3942 7.78836 11.564 7.44402 10.698 7.44318Z" fill="white"/>
</svg>
