<svg width="47" height="40" viewBox="0 0 47 40" fill="none" xmlns="http://www.w3.org/2000/svg">
<path d="M0 6.67129C0 2.98684 2.98684 0 6.67129 0H47V40H6.67129C2.98684 40 0 37.0132 0 33.3287V6.67129Z" fill="#F0B90B"/>
<path fill-rule="evenodd" clip-rule="evenodd" d="M34.6529 21.4655C34.5679 21.2304 34.3687 21.0587 34.1285 21.0124C33.8883 20.9661 33.6417 21.0516 33.4788 21.2389C32.3033 22.5918 31.396 23.2387 30.6105 23.493C29.8772 23.7295 29.2728 23.6027 28.6885 23.4795C27.8933 23.3121 27.1259 23.1503 26.2422 23.3997C25.3829 23.6412 24.3871 24.2767 23.1587 25.8048C22.9798 26.0278 22.9491 26.3391 23.0821 26.5935C24.424 29.1639 27.3578 30.5545 30.2379 29.7915C33.632 28.8938 35.6744 25.346 34.7963 21.8744C34.7907 21.8509 34.7838 21.8281 34.7754 21.806L34.6529 21.4655ZM33.5958 23.1646C33.7532 25.5505 32.2344 27.7917 29.8898 28.4123C27.8021 28.9644 25.6789 28.0696 24.5501 26.332C25.3627 25.3937 26.0131 24.9414 26.6113 24.7732C27.261 24.5901 27.823 24.7519 28.4079 24.8751C29.2045 25.0425 30.0297 25.1743 31.0297 24.8516C31.7602 24.6151 32.6 24.1256 33.5958 23.1646Z" fill="black"/>
<path fill-rule="evenodd" clip-rule="evenodd" d="M13.5212 21.2389C13.3583 21.0516 13.1118 20.9661 12.8715 21.0124C12.6313 21.0587 12.4321 21.2304 12.3471 21.4655L12.2246 21.806C12.2162 21.8281 12.2093 21.8509 12.2037 21.8744C11.3256 25.346 13.368 28.8938 16.7621 29.7915C19.6422 30.5545 22.576 29.1639 23.9179 26.5935C24.0509 26.3391 24.0202 26.0278 23.8413 25.8048C22.6129 24.2767 21.6171 23.6412 20.7578 23.3997C19.8741 23.1503 19.1067 23.3121 18.3115 23.4795C17.7272 23.6027 17.1228 23.7295 16.3895 23.493C15.604 23.2387 14.6967 22.5918 13.5212 21.2389ZM13.4042 23.1646C14.4 24.1256 15.2398 24.6151 15.9703 24.8516C16.9703 25.1743 17.7955 25.0425 18.5921 24.8751C19.177 24.7519 19.739 24.5901 20.3887 24.7732C20.9869 24.9414 21.6373 25.3937 22.4499 26.3313C21.3211 28.0696 19.1979 28.9644 17.1102 28.4123C14.7656 27.7917 13.2468 25.5505 13.4042 23.1646Z" fill="black"/>
<path fill-rule="evenodd" clip-rule="evenodd" d="M23.5 9C19.9127 9 17 12.1367 17 16C17 19.8633 19.9127 23 23.5 23C27.0873 23 30 19.8633 30 16C30 12.1367 27.0873 9 23.5 9ZM26.1624 19.8345C25.5805 20.3045 24.888 20.624 24.1353 20.7403V21.5907C25.1034 21.4641 25.9896 21.053 26.7208 20.4359L26.1624 19.8345ZM20.8376 19.8345L20.2792 20.4359C21.0098 21.0523 21.8966 21.4641 22.8647 21.5907V20.7403C22.112 20.624 21.4195 20.3045 20.8376 19.8345ZM27.9017 16.6841C27.7937 17.4948 27.4971 18.2405 27.0606 18.8672L27.619 19.4685C28.1914 18.6818 28.5738 17.7267 28.6914 16.6841H27.9017ZM18.3086 16.6841C18.4262 17.7267 18.808 18.6811 19.381 19.4685L19.9394 18.8672C19.5029 18.2405 19.2063 17.4948 19.0983 16.6841H18.3086ZM23.5 12.5794C25.2533 12.5794 26.6763 14.1118 26.6763 16C26.6763 17.8882 25.2533 19.4206 23.5 19.4206C21.7467 19.4206 20.3237 17.8882 20.3237 16C20.3237 14.1118 21.7467 12.5794 23.5 12.5794ZM27.619 12.5315L27.0606 13.1328C27.4971 13.7595 27.7937 14.5052 27.9017 15.3159H28.6914C28.5738 14.2733 28.192 13.3189 27.619 12.5315ZM19.381 12.5315C18.8086 13.3182 18.4262 14.2733 18.3086 15.3159H19.0983C19.2063 14.5052 19.5029 13.7595 19.9394 13.1328L19.381 12.5315ZM24.1353 10.4093V11.2597C24.888 11.376 25.5805 11.6955 26.1624 12.1655L26.7208 11.5641C25.9902 10.9477 25.1034 10.5359 24.1353 10.4093ZM22.8647 10.4093C21.8966 10.5359 21.0104 10.947 20.2792 11.5641L20.8376 12.1655C21.4195 11.6955 22.112 11.376 22.8647 11.2597V10.4093Z" fill="black"/>
<path fill-rule="evenodd" clip-rule="evenodd" d="M20.4263 9.98321C19.6024 10.169 19 10.7452 19 11.4261C19 12.2572 19.8962 12.932 21 12.932C21.4705 12.932 21.8526 13.2197 21.8526 13.5739C21.8526 13.9282 21.4705 14.2159 21 14.2159C20.6604 14.2159 20.3666 14.0655 20.2289 13.8487C20.0935 13.6335 19.7504 13.5411 19.4647 13.6439C19.179 13.7459 19.0574 14.0042 19.1928 14.2193C19.4337 14.6003 19.8812 14.8941 20.4263 15.0168V15.568C20.4263 15.8065 20.6833 16 21 16C21.3167 16 21.5737 15.8065 21.5737 15.568V15.0168C22.3976 14.831 23 14.2548 23 13.5739C23 12.7428 22.1038 12.068 21 12.068C20.5295 12.068 20.1474 11.7803 20.1474 11.4261C20.1474 11.0718 20.5295 10.7841 21 10.7841C21.3396 10.7841 21.6334 10.9345 21.7711 11.1513C21.9065 11.3665 22.2496 11.4589 22.5353 11.3561C22.821 11.2541 22.9426 10.9958 22.8072 10.7807C22.5663 10.3997 22.1188 10.1059 21.5737 9.98321V9.43199C21.5737 9.19353 21.3167 9 21 9C20.6833 9 20.4263 9.19353 20.4263 9.43199V9.98321Z" fill="black"/>
<path fill-rule="evenodd" clip-rule="evenodd" d="M20.2474 9.98547C19.5168 10.2272 19 10.809 19 11.4885C19 12.3836 19.8961 13.1103 21 13.1103C21.273 13.1103 21.4947 13.2902 21.4947 13.5115C21.4947 13.7329 21.273 13.9127 21 13.9127C20.8023 13.9127 20.6327 13.8183 20.5524 13.6824C20.3738 13.3789 19.9252 13.2487 19.5499 13.3935C19.1746 13.5384 19.0151 13.9029 19.1937 14.2073C19.4074 14.5718 19.7847 14.8615 20.2474 15.0145C20.2474 15.0137 20.2474 15.3897 20.2474 15.3897C20.2474 15.7266 20.5845 16 21 16C21.4155 16 21.7526 15.7266 21.7526 15.3897V15.0137C22.4832 14.7728 23 14.191 23 13.5115C23 12.6164 22.1039 11.8897 21 11.8897C20.727 11.8897 20.5053 11.7098 20.5053 11.4885C20.5053 11.2671 20.727 11.0873 21 11.0873C21.1977 11.0873 21.3673 11.1817 21.4476 11.3176C21.6262 11.6211 22.0748 11.7513 22.4501 11.6065C22.8254 11.4616 22.9849 11.0971 22.8063 10.7927C22.5926 10.4282 22.2153 10.1385 21.7526 9.98547C21.7526 9.98628 21.7526 9.61032 21.7526 9.61032C21.7526 9.27342 21.4155 9 21 9C20.5845 9 20.2474 9.27342 20.2474 9.61032V9.98547Z" fill="black"/>
</svg>
