<svg width="30" height="30" viewBox="0 0 30 30" fill="none" xmlns="http://www.w3.org/2000/svg">
<path d="M13.7227 9.80859C13.8399 9.9375 14.0039 9.99609 14.1563 9.99609C14.3086 9.99609 14.461 9.9375 14.5664 9.83203L17.7891 6.77343C18.0352 6.53906 18.0469 6.16406 17.8125 5.91797C17.5782 5.67187 17.2032 5.66015 16.9571 5.89453L14.1797 8.54297L13.0547 7.37109C12.8203 7.125 12.4453 7.125 12.1992 7.35937C11.9532 7.59375 11.9532 7.96875 12.1875 8.21484L13.7227 9.80859Z" fill="white"/>
<path d="M9.56248 10.875C10.0664 13.4766 12.3515 15.3633 15 15.3633C17.6484 15.3633 19.9336 13.4766 20.4375 10.875L21.1992 6.96094C21.4219 5.29688 20.918 3.62109 19.8164 2.35547C18.7148 1.08984 17.1211 0.363281 15.4453 0.363281H14.5547C12.8789 0.363281 11.2851 1.08984 10.1836 2.35547C9.08201 3.62109 8.57811 5.29688 8.81248 6.98438L9.56248 10.875ZM11.0859 3.15234C11.9531 2.15625 13.2187 1.58203 14.543 1.58203H15.4336C16.7578 1.58203 18.0234 2.15625 18.8906 3.15234C19.7578 4.14844 20.1562 5.48438 19.9922 6.76172L19.2422 10.6406C18.8437 12.668 17.0625 14.1445 14.9883 14.1445C12.914 14.1445 11.1328 12.668 10.7344 10.6406L9.98436 6.78516C9.8203 5.47266 10.2187 4.14844 11.0859 3.15234Z" fill="white"/>
<path d="M28.4882 28.1484L26.8475 20.4375C26.6952 19.7344 26.1913 19.1601 25.5116 18.914L20.2499 17.0508C20.0389 16.9805 19.8046 17.0273 19.6405 17.1797L14.9999 21.5156L10.3593 17.1797C10.1952 17.0273 9.96081 16.9805 9.74988 17.0508L4.48816 18.914C3.82019 19.1484 3.30456 19.7344 3.15222 20.4375L1.5116 28.1484C1.42956 28.5117 1.52331 28.8867 1.75769 29.1797C1.99206 29.4726 2.34363 29.6367 2.71863 29.6367H27.2811C27.6561 29.6367 28.0077 29.4726 28.2421 29.1797C28.4764 28.8867 28.5585 28.5117 28.4882 28.1484ZM2.69519 28.4062L4.33581 20.6953C4.39441 20.4023 4.60535 20.1562 4.8866 20.0625L9.80847 18.3164L14.5897 22.7812C14.8241 23.0039 15.1874 23.0039 15.41 22.7812L20.1913 18.3164L25.1014 20.0625C25.3827 20.168 25.5936 20.4023 25.6522 20.6953L27.2694 28.4297L2.69519 28.4062Z" fill="white"/>
</svg>
