<svg width="22" height="22" viewBox="0 0 22 22" fill="none" xmlns="http://www.w3.org/2000/svg">
<path d="M20.8751 9.20004L20.4001 10.375C20.2501 10.775 20.2501 11.2 20.4001 11.6L20.8751 12.775C21.1501 13.475 20.9251 14.275 20.3001 14.725L19.2501 15.45C18.9001 15.7 18.6751 16.075 18.5751 16.475L18.3501 17.725C18.2001 18.475 17.5751 19.025 16.8251 19.05L15.5501 19.1C15.1251 19.125 14.7251 19.3 14.4251 19.6L13.5501 20.525C13.0251 21.075 12.2001 21.2 11.5501 20.825L10.4501 20.175C10.0751 19.95 9.6501 19.9 9.2251 20L7.9751 20.3C7.2501 20.475 6.4751 20.125 6.1251 19.45L5.5501 18.3C5.3501 17.925 5.0251 17.625 4.6251 17.5L3.4251 17.1C2.7001 16.85 2.2501 16.15 2.3251 15.4L2.4501 14.125C2.5001 13.7 2.3751 13.275 2.1001 12.95L1.3001 11.95C0.825098 11.35 0.825098 10.525 1.3001 9.92504L2.1001 8.92504C2.3751 8.60004 2.5001 8.17504 2.4501 7.75004L2.3251 6.47504C2.2501 5.72504 2.7001 5.02504 3.4251 4.77504L4.6251 4.37504C5.0251 4.25004 5.3501 3.95004 5.5501 3.57504L6.1251 2.42504C6.4751 1.75004 7.2251 1.40004 7.9751 1.57504L9.2251 1.87504C9.6251 1.97504 10.0751 1.92504 10.4501 1.70004L11.5501 1.05004C12.2001 0.675042 13.0251 0.775042 13.5501 1.35004L14.4251 2.27504C14.7251 2.57504 15.1251 2.77504 15.5501 2.77504L16.8251 2.82504C17.5751 2.85004 18.2251 3.40004 18.3501 4.15004L18.5751 5.40004C18.6501 5.82504 18.9001 6.20004 19.2501 6.42504L20.3001 7.15004C20.9251 7.70004 21.1751 8.50004 20.8751 9.20004Z" fill="white"/>
<g opacity="0.15">
<path d="M6.8501 19.375L6.2751 18.225C6.0751 17.85 5.7501 17.55 5.3501 17.425L4.1501 17.025C3.4251 16.775 2.9751 16.075 3.0501 15.325L3.1751 14.05C3.2251 13.625 3.1001 13.2 2.8251 12.875L2.0251 11.875C1.5501 11.275 1.5501 10.45 2.0251 9.85L2.8251 8.85C3.1001 8.525 3.2251 8.1 3.1751 7.675L3.0501 6.4C2.9751 5.65 3.4251 4.95 4.1501 4.7L5.3501 4.3C5.7501 4.175 6.0751 3.875 6.2751 3.5L6.8501 2.35C7.0501 1.95 7.4001 1.675 7.7751 1.55C7.1001 1.45 6.4251 1.8 6.1251 2.425L5.5501 3.575C5.3501 3.95 5.0251 4.25 4.6251 4.375L3.4251 4.775C2.7001 5.025 2.2501 5.725 2.3251 6.475L2.4501 7.75C2.5001 8.175 2.3751 8.6 2.1001 8.925L1.3001 9.925C0.825098 10.525 0.825098 11.35 1.3001 11.95L2.1001 12.95C2.3751 13.275 2.5001 13.7 2.4501 14.125L2.3251 15.4C2.2501 16.15 2.7001 16.85 3.4251 17.1L4.6251 17.5C5.0251 17.625 5.3501 17.925 5.5501 18.3L6.1251 19.45C6.4751 20.125 7.2251 20.475 7.9751 20.3L8.1251 20.275C7.5751 20.175 7.1001 19.875 6.8501 19.375Z" fill="white"/>
<path d="M11.15 1.62505L12.25 0.975045C12.35 0.925045 12.45 0.875045 12.55 0.850045C12.2 0.800045 11.825 0.875045 11.525 1.05005L10.425 1.70004C10.325 1.75005 10.225 1.80005 10.125 1.82504C10.475 1.87504 10.825 1.82505 11.15 1.62505Z" fill="white"/>
<path d="M16.2501 19.0001C16.1251 19.0001 16.0001 19.0251 15.9001 19.0501L16.8001 19.0001C16.9251 19.0001 17.0251 18.9751 17.1501 18.9501L16.2501 19.0001Z" fill="white"/>
<path d="M12.2501 20.7251L11.1501 20.0751C10.7751 19.8501 10.3501 19.8001 9.92515 19.9001L9.77515 19.9251C10.0001 19.9501 10.2001 20.0251 10.4001 20.1251L11.5001 20.7751C11.9251 21.0251 12.4001 21.0501 12.8501 20.9001C12.6501 20.9001 12.4501 20.8501 12.2501 20.7251Z" fill="white"/>
</g>
<path d="M7 9.40007L10.125 12.9751L16.525 7.82507" fill="white"/>
<path d="M9.37517 14.825C9.02517 14.825 8.67517 14.675 8.42517 14.4L5.30017 10.825C4.85017 10.3 4.90017 9.52499 5.40017 9.04999C5.92517 8.59999 6.70017 8.64999 7.17517 9.14999L9.52517 11.825L15.0002 7.42499C15.5252 6.99999 16.3252 7.07499 16.7502 7.62499C17.1752 8.17499 17.1002 8.94999 16.5502 9.37499L10.1502 14.55C9.92517 14.725 9.65017 14.825 9.37517 14.825Z" fill="#372F47"/>
</svg>
