<svg width="47" height="40" viewBox="0 0 47 40" fill="none" xmlns="http://www.w3.org/2000/svg">
<path d="M0 6.67129C0 2.98684 2.98684 0 6.67129 0H47V40H6.67129C2.98684 40 0 37.0132 0 33.3287V6.67129Z" fill="#F0B90B"/>
<path d="M33.0911 20H31L32.429 23H35C34.9762 22.8836 34.9384 22.7727 34.8879 22.6712L33.8073 20.5024C33.7306 20.3484 33.6247 20.2217 33.4996 20.1338C33.3744 20.046 33.2339 20 33.0911 20Z" fill="black"/>
<path d="M29.6799 20H27.5789L26.0891 22.68H29.3206C29.4633 22.68 29.6001 22.7274 29.701 22.8116C29.8018 22.8959 29.8585 23.0102 29.8585 23.1294C29.8585 23.2486 29.8018 23.3629 29.701 23.4472C29.6001 23.5315 29.4633 23.5788 29.3206 23.5788H26L28.5285 29.7674C28.5563 29.8353 28.6088 29.8942 28.6786 29.9359C28.7484 29.9776 28.8321 30 28.9179 30C29.0038 30 29.0875 29.9776 29.1573 29.9359C29.2271 29.8942 29.2796 29.8353 29.3074 29.7674L32 23.1829L29.6799 20Z" fill="black"/>
<path d="M31 29L34.9912 24.0139C34.9944 24.0095 34.9968 24.0045 35 24H32.5965L31 29Z" fill="black"/>
<path d="M24.3219 20.5024L23.1242 22.6712C23.0683 22.7727 23.0264 22.8836 23 23H25.7922L27 20H25.1156C24.9574 20 24.8017 20.0461 24.6629 20.1339C24.5242 20.2217 24.4069 20.3484 24.3219 20.5024Z" fill="black"/>
<path d="M23 24C23.0032 24.0044 23.0055 24.0094 23.0088 24.0139L27 29L25.3968 24H23Z" fill="black"/>
<path d="M26.6065 11.2606H29.7132C30.1176 11.2611 30.5053 11.4283 30.7912 11.7254C31.0772 12.0226 31.238 12.4255 31.2385 12.8458V14.9651L30.6997 14.4669C30.5795 14.3558 30.4218 14.2989 30.2612 14.3086C30.1006 14.3184 29.9503 14.394 29.8434 14.5189C29.7365 14.6438 29.6817 14.8078 29.6911 14.9746C29.7005 15.1415 29.7733 15.2977 29.8935 15.4088L31.4419 16.8406C31.553 16.9433 31.6964 17 31.845 17C31.9936 17 32.1371 16.9433 32.2481 16.8406L33.7966 15.4088C33.8561 15.3538 33.9046 15.2871 33.9393 15.2126C33.974 15.1381 33.9943 15.0573 33.999 14.9746C34.0036 14.892 33.9926 14.8092 33.9664 14.7311C33.9403 14.6529 33.8996 14.5808 33.8467 14.5189C33.7937 14.4571 33.7296 14.4067 33.6579 14.3706C33.5862 14.3345 33.5084 14.3135 33.4289 14.3086C33.3494 14.3038 33.2698 14.3153 33.1945 14.3424C33.1193 14.3696 33.0499 14.4119 32.9904 14.4669L32.4515 14.9651V12.8458C32.4507 12.0913 32.1619 11.368 31.6485 10.8345C31.1351 10.301 30.4391 10.0009 29.7131 10H26.6065C26.5269 10 26.448 10.0163 26.3744 10.048C26.3008 10.0797 26.234 10.1261 26.1776 10.1846C26.1213 10.2431 26.0766 10.3126 26.0462 10.3891C26.0157 10.4656 26 10.5475 26 10.6303C26 10.7131 26.0157 10.795 26.0462 10.8715C26.0766 10.948 26.1213 11.0174 26.1776 11.076C26.234 11.1345 26.3008 11.1809 26.3744 11.2126C26.448 11.2443 26.5269 11.2606 26.6065 11.2606Z" fill="black"/>
<path d="M19 20C20.1867 20 21.3467 19.6774 22.3334 19.0731C23.3201 18.4687 24.0891 17.6098 24.5433 16.6048C24.9974 15.5998 25.1162 14.4939 24.8847 13.427C24.6532 12.3601 24.0818 11.3801 23.2426 10.6109C22.4035 9.84173 21.3344 9.3179 20.1705 9.10568C19.0067 8.89346 17.8003 9.00238 16.7039 9.41866C15.6075 9.83495 14.6705 10.5399 14.0112 11.4444C13.3519 12.3488 13 13.4122 13 14.5C13 15.9587 13.6321 17.3576 14.7574 18.3891C15.8826 19.4205 17.4087 20 19 20ZM19.4589 15.0528H18.5239C18.089 15.0538 17.6708 14.899 17.3585 14.6215C17.0462 14.344 16.8645 13.9657 16.852 13.5672C16.8395 13.1687 16.9973 12.7814 17.2917 12.488C17.5862 12.1945 17.994 12.0181 18.4283 11.9962V11.285C18.4266 11.2211 18.4388 11.1575 18.4643 11.098C18.4898 11.0385 18.5281 10.9843 18.5768 10.9385C18.6255 10.8928 18.6837 10.8564 18.748 10.8316C18.8123 10.8067 18.8814 10.794 18.9511 10.794C19.0209 10.794 19.0899 10.8067 19.1542 10.8316C19.2185 10.8564 19.2767 10.8928 19.3254 10.9385C19.3741 10.9843 19.4124 11.0385 19.4379 11.098C19.4634 11.1575 19.4757 11.2211 19.474 11.285V11.9874H20.6252C20.7617 11.9904 20.8915 12.0422 20.9868 12.1318C21.0821 12.2213 21.1355 12.3415 21.1355 12.4666C21.1355 12.5918 21.0821 12.7119 20.9868 12.8015C20.8915 12.891 20.7617 12.9429 20.6252 12.9459H18.5239C18.3578 12.9459 18.1985 13.0064 18.0811 13.1141C17.9636 13.2218 17.8976 13.3678 17.8976 13.5201C17.8976 13.6723 17.9636 13.8184 18.0811 13.926C18.1985 14.0337 18.3578 14.0942 18.5239 14.0942H19.4588C19.8794 14.0943 20.2829 14.2471 20.581 14.5192C20.8791 14.7912 21.0476 15.1604 21.0496 15.5459C21.0516 15.9315 20.8869 16.3021 20.5917 16.5768C20.2964 16.8514 19.8946 17.0077 19.474 17.0115V17.7147C19.4757 17.7786 19.4634 17.8422 19.4379 17.9017C19.4124 17.9612 19.3741 18.0154 19.3254 18.0612C19.2767 18.107 19.2185 18.1433 19.1542 18.1681C19.0899 18.193 19.0209 18.2058 18.9511 18.2058C18.8814 18.2058 18.8123 18.193 18.748 18.1681C18.6837 18.1433 18.6255 18.107 18.5768 18.0612C18.5281 18.0154 18.4898 17.9612 18.4643 17.9017C18.4388 17.8422 18.4266 17.7786 18.4283 17.7147V17.0129H17.3745C17.238 17.0099 17.1083 16.958 17.0129 16.8685C16.9176 16.7789 16.8642 16.6587 16.8642 16.5336C16.8642 16.4085 16.9176 16.2883 17.0129 16.1988C17.1083 16.1092 17.238 16.0574 17.3745 16.0543H19.4588C19.6037 16.0543 19.7426 16.0016 19.845 15.9077C19.9475 15.8138 20.005 15.6864 20.005 15.5536C20.005 15.4208 19.9475 15.2934 19.845 15.1995C19.7426 15.1056 19.6037 15.0529 19.4588 15.0529L19.4589 15.0528Z" fill="black"/>
<path d="M22.3175 28.7385H18.8224C18.3675 28.738 17.9313 28.5707 17.6096 28.2733C17.2879 27.9759 17.1069 27.5727 17.1063 27.1521V25.0367L17.7125 25.5354C17.7795 25.5905 17.8575 25.6328 17.9422 25.66C18.0268 25.6871 18.1164 25.6986 18.2059 25.6938C18.2953 25.689 18.3829 25.6679 18.4635 25.6318C18.5442 25.5957 18.6163 25.5452 18.6759 25.4833C18.7354 25.4214 18.7812 25.3493 18.8106 25.2711C18.84 25.1928 18.8524 25.11 18.8472 25.0273C18.842 24.9446 18.8192 24.8637 18.7801 24.7891C18.741 24.7146 18.6865 24.6479 18.6195 24.5928L16.8775 23.1595C16.7525 23.0567 16.591 22.9999 16.4237 23C16.2564 23.0001 16.095 23.057 15.9701 23.1599L14.2285 24.593C14.1616 24.6481 14.107 24.7149 14.068 24.7895C14.029 24.8641 14.0063 24.945 14.0011 25.0277C13.996 25.1104 14.0085 25.1932 14.0379 25.2715C14.0674 25.3497 14.1133 25.4218 14.1729 25.4837C14.2325 25.5455 14.3047 25.5959 14.3854 25.632C14.4661 25.668 14.5536 25.689 14.6431 25.6938C14.7326 25.6986 14.8222 25.687 14.9068 25.6598C14.9914 25.6326 15.0694 25.5902 15.1363 25.5351L15.7418 25.0368V27.1521C15.7428 27.9071 16.0677 28.631 16.6452 29.1649C17.2228 29.6988 18.0058 29.9991 18.8226 30H22.3177C22.4986 30 22.6722 29.9335 22.8001 29.8153C22.9281 29.697 23 29.5365 23 29.3692C23 29.202 22.9281 29.0415 22.8001 28.9232C22.6722 28.8049 22.4986 28.7385 22.3177 28.7385H22.3175Z" fill="black"/>
</svg>
